<svg width="29" height="32" viewBox="0 0 29 32" fill="none" xmlns="http://www.w3.org/2000/svg">
<g clip-path="url(#clip0_2_22)">
<ellipse cx="5.72712" cy="6.65977" rx="3.50958" ry="6.004" transform="rotate(-45 5.72712 6.65977)" fill="black"/>
<ellipse cx="22.2729" cy="6.72667" rx="3.50958" ry="6.004" transform="rotate(45 22.2729 6.72667)" fill="black"/>
<path fill-rule="evenodd" clip-rule="evenodd" d="M14.6226 32H27.7784C27.7784 17.0144 21.8883 4.86609 14.6226 4.86609C7.3568 4.86609 1.46674 17.0144 1.46674 32H14.6226ZM11.3336 15.5552C12.2418 15.5552 12.9781 14.8189 12.9781 13.9107C12.9781 13.0025 12.2418 12.2662 11.3336 12.2662C10.4254 12.2662 9.68913 13.0025 9.68913 13.9107C9.68913 14.8189 10.4254 15.5552 11.3336 15.5552ZM14.6226 18.0219C12.3203 18.0219 11.4706 19.3923 11.3336 20.0775L10.5114 22.5442C10.5114 25.1754 12.1558 25.8332 12.9781 25.8332H16.267C18.8982 25.8332 19.2819 23.6406 19.1449 22.5442L18.3226 20.0775C18.0486 19.3923 16.9248 18.0219 14.6226 18.0219ZM17.9115 15.5552C18.8197 15.5552 19.556 14.8189 19.556 13.9107C19.556 13.0025 18.8197 12.2662 17.9115 12.2662C17.0033 12.2662 16.267 13.0025 16.267 13.9107C16.267 14.8189 17.0033 15.5552 17.9115 15.5552Z" fill="black"/>
<ellipse cx="14.5" cy="20.5" rx="1.5" ry="0.5" fill="black"/>
</g>
<defs>
<clipPath id="clip0_2_22">
<rect width="29" height="32" fill="white"/>
</clipPath>
</defs>
</svg>
