<svg width="36" height="32" viewBox="0 0 36 32" fill="none" xmlns="http://www.w3.org/2000/svg">
<g clip-path="url(#clip0_4_44)">
<path fill-rule="evenodd" clip-rule="evenodd" d="M14.034 13.9815C14.3673 11.225 15.534 5.12826 17.534 2.79334C19.534 0.685419 24.834 -2.26566 30.034 2.79334C30.2062 2.96092 30.3982 3.17213 30.6032 3.42592L30.5339 3.27978L35.5339 3.76622L33.5767 9.47863C34.1448 11.4284 34.534 13.7507 34.534 16.4137C34.2006 18.6838 32.534 24.0995 28.534 27.6019C24.534 31.1043 19.8673 31.9799 18.034 31.9799C15.3673 32.142 8.93395 31.3961 4.53395 27.1154C2.86728 25.3318 -0.366049 21.1809 0.0339505 18.8459C4.54369 18.1973 13.6573 16.3164 14.034 13.9815ZM26 4.86443C26 5.93905 25.1046 6.8102 24 6.8102C22.8954 6.8102 22 5.93905 22 4.86443C22 3.78981 22.8954 2.91866 24 2.91866C25.1046 2.91866 26 3.78981 26 4.86443ZM23.5058 13.6966C23.7416 15.2258 23.5484 17.5193 22.2273 19.415C20.9262 21.2821 18.4705 22.8492 14 22.8492V23.8492C18.7295 23.8492 21.5238 22.1735 23.0477 19.9868C24.5516 17.8288 24.7584 15.2579 24.4941 13.5442L23.5058 13.6966Z" fill="black"/>
</g>
<defs>
<clipPath id="clip0_4_44">
<rect width="35.53" height="32" fill="white"/>
</clipPath>
</defs>
</svg>
