<svg width="49" height="32" viewBox="0 0 49 32" fill="none" xmlns="http://www.w3.org/2000/svg">
<g clip-path="url(#clip0_4_31)">
<path fill-rule="evenodd" clip-rule="evenodd" d="M27.1994 6C32.0327 5.83334 42.9994 7.6 48.1994 16C45.5327 19.5 37.5994 26.3 27.1994 25.5L18.6994 32C18.866 29.6667 19.3994 24.8 20.1994 24C17.366 22.3333 10.8994 19.2 7.69936 20L0.19936 26.5C0.19936 23.6667 0.59936 17.6 2.19936 16C1.19936 13 -0.60064 6.7 0.19936 5.5L7.69936 12C9.36602 11.8333 14.1993 10.8 20.1993 8C19.6993 6.5 18.7993 2.8 19.1993 0L27.1994 6ZM41.5 16C42.3284 16 43 15.3284 43 14.5C43 13.6716 42.3284 13 41.5 13C40.6716 13 40 13.6716 40 14.5C40 15.3284 40.6716 16 41.5 16Z" fill="black"/>
</g>
<defs>
<clipPath id="clip0_4_31">
<rect width="48.2" height="32" fill="white"/>
</clipPath>
</defs>
</svg>
